<svg width="32" height="32" viewBox="0 0 32 32" fill="none" xmlns="http://www.w3.org/2000/svg">
  <defs>
    <linearGradient id="gradient" x1="0%" y1="0%" x2="100%" y2="100%">
      <stop offset="0%" style="stop-color:#3B82F6;stop-opacity:1" />
      <stop offset="100%" style="stop-color:#06B6D4;stop-opacity:1" />
    </linearGradient>
  </defs>
  <rect width="32" height="32" rx="6" fill="url(#gradient)"/>
  <path d="M16 6c-1.1 0-2 .9-2 2v6c0 1.1.9 2 2 2s2-.9 2-2V8c0-1.1-.9-2-2-2z" fill="white"/>
  <path d="M20 12c0 2.2-1.8 4-4 4s-4-1.8-4-4h-2c0 3.3 2.7 6 6 6s6-2.7 6-6h-2z" fill="white"/>
  <path d="M14 20h4v2h-4z" fill="white"/>
  <path d="M12 22h8v2h-8z" fill="white"/>
</svg> 